<svg width="913" height="512" viewBox="0 0 913 512" fill="none" xmlns="http://www.w3.org/2000/svg">
<g clip-path="url(#clip0_1062_127079)">
<path d="M5.07278 453.762C5.06966 453.118 5.3195 452.499 5.76855 452.038C6.2176 451.576 6.82996 451.31 7.47384 451.295H21.2377C30.9772 451.295 37.4025 456.476 37.4025 464.98V465.104C37.4025 474.408 29.6245 479.218 20.426 479.218H9.94254V492.295C9.94254 492.941 9.686 493.559 9.22938 494.016C8.77275 494.472 8.15343 494.728 7.50766 494.728C6.86189 494.728 6.24257 494.472 5.78594 494.016C5.32931 493.559 5.07278 492.941 5.07278 492.295V453.762ZM20.6177 474.78C27.7758 474.78 32.4651 470.962 32.4651 465.285V465.194C32.4651 459.033 27.8321 455.823 20.8657 455.823H9.94254V474.814L20.6177 474.78Z" fill="#182958"/>
<path d="M42.4639 485.201V485.077C42.4639 478.318 48.01 474.782 56.0924 474.782C59.411 474.748 62.7162 475.207 65.8995 476.144V475.018C65.8995 469.285 62.3938 466.322 56.408 466.322C53.5535 466.321 50.7319 466.931 48.134 468.113C47.8624 468.229 47.5721 468.294 47.2773 468.305C46.7398 468.303 46.2231 468.097 45.8318 467.729C45.4404 467.361 45.2036 466.858 45.1693 466.322C45.174 465.904 45.2987 465.496 45.5284 465.147C45.7582 464.798 46.0835 464.521 46.4656 464.351C49.7465 462.893 53.3022 462.156 56.8928 462.189C61.4018 462.189 64.8512 463.315 67.1959 465.703C69.3602 467.866 70.4762 470.941 70.4762 475.018V492.466C70.4884 492.769 70.439 493.072 70.3312 493.356C70.2233 493.639 70.0592 493.898 69.8486 494.117C69.6381 494.336 69.3854 494.51 69.1058 494.629C68.8262 494.748 68.5255 494.809 68.2217 494.809C67.6238 494.809 67.0503 494.571 66.6275 494.149C66.2047 493.726 65.9672 493.153 65.9672 492.556V489.638C64.6213 491.405 62.8726 492.824 60.8667 493.778C58.8608 494.732 56.6558 495.194 54.4353 495.124C48.4722 495.124 42.4639 491.734 42.4639 485.201ZM65.9672 482.734V479.659C62.9231 478.755 59.7641 478.296 56.5884 478.296C50.6027 478.296 47.2773 480.886 47.2773 484.896V485.02C47.2773 489.03 50.9747 491.373 55.2921 491.373C61.1538 491.373 65.9672 487.791 65.9672 482.734Z" fill="#182958"/>
<path d="M78.908 491.103C78.6391 490.903 78.4205 490.643 78.2699 490.344C78.1192 490.045 78.0405 489.714 78.04 489.379C78.0489 488.832 78.2745 488.31 78.6674 487.928C79.0603 487.546 79.5885 487.335 80.1367 487.341C80.5429 487.339 80.9386 487.469 81.264 487.712C84.2261 489.838 87.7634 491.016 91.4093 491.091C95.2307 491.091 98.0151 489.12 98.0151 486.034V485.91C98.0151 482.711 94.25 481.472 90.0566 480.278C85.0516 478.859 79.5055 477.136 79.5055 471.267V471.143C79.5055 465.658 84.0145 462.02 90.361 462.02C93.9113 462.101 97.3904 463.032 100.506 464.734C100.852 464.934 101.139 465.221 101.337 465.567C101.535 465.914 101.637 466.306 101.634 466.705C101.631 466.977 101.574 467.245 101.467 467.495C101.36 467.745 101.204 467.971 101.009 468.16C100.815 468.35 100.584 468.499 100.331 468.599C100.079 468.699 99.8087 468.749 99.5369 468.744C99.1731 468.742 98.8145 468.657 98.4885 468.496C95.9745 466.981 93.1149 466.132 90.1806 466.029C86.4156 466.029 84.0145 468.001 84.0145 470.659V470.772C84.0145 473.802 87.9599 474.973 92.2209 476.268C97.1583 477.744 102.456 479.647 102.456 485.392V485.471C102.456 491.508 97.4627 495.023 91.105 495.023C86.741 494.949 82.4967 493.585 78.908 491.103V491.103Z" fill="#182958"/>
<path d="M108.916 485.201V485.077C108.916 478.318 114.462 474.782 122.544 474.782C125.863 474.748 129.168 475.207 132.351 476.145V475.018C132.351 469.285 128.834 466.322 122.86 466.322C120.005 466.321 117.184 466.932 114.586 468.113C114.314 468.229 114.024 468.294 113.729 468.305C113.188 468.309 112.665 468.106 112.269 467.737C111.873 467.368 111.633 466.862 111.598 466.322C111.603 465.904 111.728 465.496 111.958 465.147C112.187 464.798 112.513 464.522 112.895 464.351C116.175 462.892 119.731 462.155 123.322 462.189C127.831 462.189 131.28 463.315 133.625 465.703C135.789 467.866 136.894 470.941 136.894 475.018V492.466C136.906 492.769 136.857 493.072 136.749 493.356C136.641 493.639 136.477 493.899 136.266 494.117C136.056 494.336 135.803 494.51 135.524 494.629C135.244 494.748 134.943 494.809 134.64 494.809C134.042 494.809 133.468 494.571 133.045 494.149C132.623 493.726 132.385 493.153 132.385 492.556V489.639C131.039 491.405 129.29 492.824 127.285 493.778C125.279 494.732 123.074 495.194 120.853 495.124C114.89 495.124 108.916 491.734 108.916 485.201ZM132.419 482.734V479.659C129.375 478.755 126.216 478.296 123.04 478.296C117.054 478.296 113.729 480.887 113.729 484.897V485.02C113.729 489.03 117.426 491.373 121.744 491.373C127.605 491.373 132.419 487.791 132.419 482.734Z" fill="#182958"/>
<path d="M147.04 464.677C147.037 464.048 147.281 463.444 147.719 462.993C148.157 462.542 148.755 462.281 149.384 462.267C149.702 462.262 150.018 462.321 150.313 462.441C150.608 462.56 150.875 462.738 151.1 462.962C151.325 463.187 151.503 463.455 151.622 463.749C151.742 464.044 151.801 464.359 151.797 464.677V470.658C154.141 465.353 158.763 462.143 162.776 462.143C163.094 462.129 163.41 462.183 163.705 462.3C164 462.417 164.267 462.596 164.489 462.823C164.71 463.051 164.881 463.323 164.99 463.621C165.099 463.919 165.143 464.237 165.121 464.553C165.136 465.143 164.929 465.717 164.54 466.161C164.152 466.605 163.611 466.888 163.024 466.952C156.847 467.696 151.752 472.314 151.752 481.505V492.352C151.752 492.983 151.501 493.587 151.055 494.033C150.609 494.479 150.004 494.729 149.373 494.729C148.742 494.729 148.137 494.479 147.691 494.033C147.245 493.587 146.995 492.983 146.995 492.352L147.04 464.677Z" fill="#182958"/>
<path d="M191.341 453.762C191.341 453.117 191.593 452.498 192.044 452.037C192.495 451.576 193.108 451.31 193.753 451.295H206.288C219.815 451.295 229.239 460.599 229.239 472.696V472.82C229.284 485.019 219.906 494.48 206.288 494.48H193.753C193.108 494.466 192.495 494.199 192.044 493.738C191.593 493.277 191.341 492.658 191.341 492.014V453.762ZM206.288 489.975C217.211 489.975 224.178 482.575 224.178 473.012V472.899C224.178 463.336 217.211 455.812 206.288 455.812H196.143V489.975H206.288Z" fill="#182958"/>
<path d="M238.787 452.591C238.787 451.845 239.084 451.128 239.613 450.6C240.141 450.072 240.858 449.775 241.605 449.775C242.353 449.775 243.069 450.072 243.598 450.6C244.126 451.128 244.423 451.845 244.423 452.591V453.391C244.423 454.138 244.126 454.854 243.598 455.382C243.069 455.91 242.353 456.207 241.605 456.207C240.858 456.207 240.141 455.91 239.613 455.382C239.084 454.854 238.787 454.138 238.787 453.391V452.591ZM239.227 464.677C239.224 464.049 239.468 463.444 239.906 462.993C240.344 462.543 240.942 462.282 241.571 462.267C241.889 462.262 242.204 462.322 242.498 462.441C242.792 462.561 243.059 462.739 243.283 462.963C243.508 463.188 243.684 463.456 243.802 463.75C243.921 464.045 243.979 464.36 243.972 464.677V492.353C243.985 492.667 243.933 492.98 243.82 493.274C243.708 493.567 243.537 493.835 243.317 494.06C243.098 494.286 242.835 494.464 242.545 494.585C242.254 494.706 241.942 494.766 241.628 494.763C241.31 494.768 240.995 494.708 240.701 494.589C240.407 494.469 240.14 494.292 239.916 494.067C239.692 493.842 239.515 493.574 239.397 493.28C239.279 492.985 239.221 492.67 239.227 492.353V464.677Z" fill="#182958"/>
<path d="M255.82 500.677C255.45 500.497 255.139 500.217 254.922 499.868C254.704 499.52 254.59 499.117 254.591 498.706C254.629 498.153 254.87 497.634 255.267 497.248C255.664 496.861 256.19 496.635 256.744 496.611C257.115 496.611 257.479 496.716 257.792 496.915C261.121 499.164 265.047 500.368 269.065 500.373C276.099 500.373 280.665 496.487 280.665 489.03V485.268C277.88 488.963 274.002 492.027 268.141 492.027C266.168 492.06 264.209 491.697 262.38 490.961C260.55 490.224 258.887 489.128 257.489 487.737C256.091 486.346 254.987 484.69 254.241 482.865C253.495 481.04 253.124 479.084 253.148 477.113V476.989C253.156 473.786 254.184 470.669 256.083 468.089C257.983 465.509 260.655 463.6 263.713 462.638C266.77 461.677 270.055 461.714 273.091 462.743C276.126 463.772 278.755 465.74 280.597 468.361V464.723C280.585 464.407 280.636 464.091 280.749 463.795C280.861 463.499 281.031 463.229 281.25 463C281.468 462.771 281.731 462.588 282.021 462.462C282.312 462.337 282.625 462.27 282.942 462.268C283.581 462.268 284.195 462.522 284.647 462.974C285.1 463.426 285.354 464.039 285.354 464.678V488.906C285.354 493.829 283.866 497.591 281.273 500.17C278.444 503.009 274.183 504.428 269.121 504.428C264.423 504.453 259.812 503.153 255.82 500.677V500.677ZM280.811 477.023V476.899C280.811 470.366 275.175 466.12 269.088 466.12C263 466.12 258.04 470.31 258.04 476.843V476.967C258.032 478.41 258.314 479.84 258.869 481.172C259.424 482.504 260.24 483.711 261.27 484.723C262.3 485.734 263.523 486.529 264.866 487.06C266.208 487.591 267.644 487.847 269.088 487.814C275.13 487.791 280.811 483.41 280.811 477.001V477.023Z" fill="#182958"/>
<path d="M295.984 452.591C295.984 451.845 296.281 451.128 296.81 450.6C297.338 450.072 298.055 449.775 298.803 449.775C299.55 449.775 300.267 450.072 300.795 450.6C301.324 451.128 301.621 451.845 301.621 452.591V453.391C301.621 454.138 301.324 454.854 300.795 455.382C300.267 455.91 299.55 456.207 298.803 456.207C298.055 456.207 297.338 455.91 296.81 455.382C296.281 454.854 295.984 454.138 295.984 453.391V452.591ZM296.424 464.677C296.421 464.056 296.658 463.458 297.087 463.009C297.516 462.559 298.103 462.293 298.724 462.267C299.041 462.262 299.356 462.322 299.65 462.441C299.945 462.561 300.212 462.739 300.436 462.963C300.66 463.188 300.836 463.456 300.955 463.75C301.073 464.045 301.131 464.36 301.125 464.677V492.353C301.137 492.667 301.085 492.98 300.973 493.274C300.86 493.567 300.689 493.835 300.469 494.06C300.25 494.286 299.987 494.464 299.697 494.585C299.407 494.706 299.095 494.766 298.78 494.763C298.462 494.768 298.147 494.708 297.853 494.589C297.559 494.469 297.292 494.292 297.068 494.067C296.844 493.842 296.667 493.574 296.549 493.28C296.431 492.985 296.373 492.67 296.379 492.353L296.424 464.677Z" fill="#182958"/>
<path d="M313.885 486.001V466.773H311.292C310.742 466.756 310.218 466.53 309.829 466.141C309.439 465.752 309.213 465.229 309.196 464.678C309.202 464.124 309.424 463.595 309.816 463.203C310.208 462.812 310.738 462.589 311.292 462.583H313.885V455.059C313.878 454.747 313.932 454.437 314.046 454.146C314.16 453.855 314.33 453.59 314.547 453.366C314.764 453.141 315.024 452.963 315.311 452.839C315.598 452.716 315.906 452.651 316.219 452.648C316.855 452.66 317.462 452.918 317.912 453.367C318.361 453.817 318.619 454.423 318.631 455.059V462.583H326.905C327.467 462.586 328.006 462.805 328.409 463.196C328.812 463.586 329.049 464.117 329.069 464.678C329.057 465.242 328.824 465.778 328.418 466.17C328.013 466.563 327.469 466.779 326.905 466.773H318.642V485.393C318.642 489.267 320.807 490.687 324.008 490.687C324.986 490.65 325.958 490.507 326.905 490.259C327.445 490.261 327.962 490.477 328.344 490.859C328.726 491.241 328.942 491.757 328.945 492.297C328.937 492.707 328.803 493.104 328.561 493.434C328.319 493.765 327.981 494.013 327.593 494.145C326.102 494.738 324.508 495.029 322.903 495.001C317.763 495.001 313.885 492.477 313.885 486.001Z" fill="#182958"/>
<path d="M334.795 485.201V485.077C334.795 478.319 340.342 474.782 348.424 474.782C351.743 474.748 355.048 475.207 358.231 476.145V475.018C358.231 469.285 354.714 466.323 348.74 466.323C345.873 466.32 343.039 466.934 340.432 468.125C340.157 468.242 339.862 468.306 339.564 468.316C339.019 468.311 338.497 468.096 338.107 467.716C337.716 467.337 337.487 466.821 337.467 466.278C337.472 465.859 337.596 465.452 337.826 465.102C338.056 464.753 338.381 464.477 338.763 464.306C342.044 462.847 345.6 462.11 349.191 462.144C353.7 462.144 357.149 463.27 359.494 465.658C361.658 467.821 362.763 470.896 362.763 474.973V492.421C362.775 492.724 362.726 493.027 362.618 493.311C362.51 493.594 362.346 493.854 362.135 494.072C361.925 494.291 361.672 494.465 361.392 494.584C361.113 494.703 360.812 494.764 360.508 494.764C359.91 494.764 359.337 494.526 358.914 494.104C358.491 493.681 358.254 493.108 358.254 492.511V489.639C356.908 491.405 355.159 492.824 353.153 493.778C351.147 494.732 348.942 495.194 346.722 495.124C340.714 495.124 334.795 491.734 334.795 485.201ZM358.299 482.734V479.659C355.255 478.755 352.096 478.296 348.92 478.296C342.934 478.296 339.598 480.887 339.598 484.897V485.021C339.598 489.03 343.306 491.373 347.624 491.373C353.429 491.373 358.242 487.791 358.242 482.734H358.299Z" fill="#182958"/>
<path d="M373.303 451.544C373.28 451.219 373.325 450.893 373.434 450.586C373.543 450.279 373.714 449.997 373.937 449.759C374.159 449.521 374.428 449.331 374.727 449.201C375.027 449.071 375.349 449.004 375.675 449.004C376.002 449.004 376.324 449.071 376.623 449.201C376.922 449.331 377.192 449.521 377.414 449.759C377.637 449.997 377.808 450.279 377.917 450.586C378.026 450.893 378.071 451.219 378.048 451.544V492.353C378.06 492.667 378.009 492.98 377.896 493.274C377.783 493.568 377.612 493.835 377.393 494.061C377.174 494.286 376.911 494.465 376.621 494.585C376.33 494.706 376.018 494.767 375.704 494.764C375.386 494.768 375.071 494.709 374.777 494.589C374.483 494.47 374.216 494.292 373.991 494.067C373.767 493.842 373.591 493.574 373.473 493.28C373.354 492.986 373.296 492.67 373.303 492.353V451.544Z" fill="#182958"/>
<path d="M407.729 476.392V453.448C407.729 452.803 407.986 452.184 408.442 451.728C408.899 451.271 409.518 451.015 410.164 451.015C410.81 451.015 411.429 451.271 411.886 451.728C412.342 452.184 412.599 452.803 412.599 453.448V476.077C412.599 485.392 417.593 490.63 425.799 490.63C433.757 490.63 438.819 485.82 438.819 476.392V453.448C438.796 453.114 438.842 452.778 438.955 452.463C439.067 452.147 439.243 451.858 439.472 451.613C439.701 451.369 439.977 451.174 440.285 451.04C440.592 450.907 440.924 450.838 441.259 450.838C441.594 450.838 441.926 450.907 442.234 451.04C442.541 451.174 442.818 451.369 443.047 451.613C443.276 451.858 443.452 452.147 443.564 452.463C443.676 452.778 443.723 453.114 443.7 453.448V475.976C443.7 488.546 436.474 495.124 425.664 495.124C414.853 495.124 407.729 488.591 407.729 476.392Z" fill="#182958"/>
<path d="M455.232 453.514C455.244 452.878 455.502 452.272 455.951 451.822C456.401 451.373 457.008 451.115 457.644 451.104H458.197C458.652 451.11 459.098 451.232 459.492 451.459C459.887 451.685 460.217 452.009 460.451 452.399L475.883 475.58L491.304 452.399C491.535 452.006 491.865 451.68 492.26 451.453C492.655 451.226 493.103 451.105 493.559 451.104H494.111C494.746 451.115 495.352 451.373 495.8 451.823C496.248 452.273 496.504 452.879 496.512 453.514V492.295C496.515 492.939 496.265 493.558 495.816 494.019C495.367 494.481 494.755 494.747 494.111 494.762C493.46 494.75 492.839 494.487 492.378 494.027C491.918 493.567 491.654 492.946 491.642 492.295V460.115L477.822 480.389C477.62 480.756 477.325 481.063 476.967 481.28C476.609 481.498 476.201 481.618 475.782 481.628C475.356 481.617 474.94 481.498 474.573 481.281C474.206 481.064 473.9 480.757 473.685 480.389L459.933 460.171V492.352C459.933 492.982 459.682 493.586 459.236 494.032C458.79 494.478 458.185 494.728 457.554 494.728C456.923 494.728 456.318 494.478 455.872 494.032C455.426 493.586 455.176 492.982 455.176 492.352L455.232 453.514Z" fill="#182958"/>
<path d="M508.788 453.448C508.765 453.114 508.811 452.778 508.924 452.463C509.036 452.147 509.212 451.858 509.441 451.613C509.67 451.369 509.947 451.174 510.254 451.04C510.562 450.907 510.893 450.838 511.228 450.838C511.564 450.838 511.895 450.907 512.203 451.04C512.51 451.174 512.787 451.369 513.016 451.613C513.245 451.858 513.421 452.147 513.533 452.463C513.645 452.778 513.692 453.114 513.669 453.448V477.102L538.288 451.882C538.534 451.622 538.829 451.412 539.155 451.265C539.482 451.118 539.835 451.037 540.193 451.026C540.817 451.049 541.409 451.311 541.845 451.758C542.282 452.204 542.53 452.801 542.538 453.425C542.53 453.752 542.454 454.074 542.317 454.37C542.179 454.667 541.982 454.932 541.737 455.149L526.429 470.287L542.842 490.562C543.28 491.056 543.52 491.694 543.519 492.353C543.504 493.003 543.239 493.622 542.78 494.082C542.32 494.541 541.7 494.806 541.05 494.82C540.652 494.816 540.262 494.71 539.917 494.513C539.572 494.316 539.283 494.034 539.077 493.694L522.969 473.655L513.658 482.97V492.342C513.68 492.676 513.634 493.011 513.522 493.327C513.409 493.643 513.233 493.932 513.005 494.176C512.776 494.421 512.499 494.616 512.191 494.75C511.884 494.883 511.552 494.952 511.217 494.952C510.882 494.952 510.55 494.883 510.243 494.75C509.935 494.616 509.659 494.421 509.43 494.176C509.201 493.932 509.025 493.643 508.912 493.327C508.8 493.011 508.754 492.676 508.777 492.342L508.788 453.448Z" fill="#182958"/>
<path d="M552.841 453.514C552.853 452.878 553.111 452.272 553.561 451.822C554.011 451.373 554.617 451.115 555.254 451.104H555.806C556.26 451.113 556.705 451.236 557.099 451.463C557.493 451.689 557.824 452.011 558.06 452.399L573.481 475.58L588.902 452.399C589.133 452.006 589.462 451.68 589.858 451.453C590.253 451.226 590.701 451.105 591.157 451.104H591.81C592.447 451.115 593.053 451.373 593.503 451.822C593.953 452.272 594.211 452.878 594.223 453.514V492.295C594.223 492.94 593.971 493.559 593.52 494.02C593.069 494.481 592.455 494.747 591.81 494.762C591.16 494.748 590.541 494.483 590.081 494.024C589.621 493.564 589.356 492.945 589.342 492.295V460.115L575.522 480.389C575.321 480.755 575.028 481.062 574.672 481.279C574.316 481.496 573.91 481.617 573.493 481.628C573.065 481.618 572.647 481.499 572.278 481.282C571.909 481.066 571.601 480.758 571.385 480.389L557.632 460.171V492.352C557.632 492.982 557.382 493.586 556.935 494.032C556.489 494.478 555.884 494.728 555.254 494.728C554.623 494.728 554.018 494.478 553.572 494.032C553.126 493.586 552.875 492.982 552.875 492.352L552.841 453.514Z" fill="#182958"/>
<path d="M625.347 453.447C625.347 452.801 625.603 452.183 626.06 451.726C626.516 451.27 627.136 451.014 627.781 451.014C628.427 451.014 629.046 451.27 629.503 451.726C629.96 452.183 630.216 452.801 630.216 453.447V492.296C630.216 492.941 629.96 493.56 629.503 494.016C629.046 494.472 628.427 494.729 627.781 494.729C627.136 494.729 626.516 494.472 626.06 494.016C625.603 493.56 625.347 492.941 625.347 492.296V453.447Z" fill="#182958"/>
<path d="M642.064 464.677C642.061 464.049 642.304 463.444 642.743 462.993C643.181 462.542 643.779 462.282 644.408 462.267C644.726 462.262 645.041 462.322 645.335 462.441C645.629 462.561 645.896 462.739 646.12 462.963C646.344 463.188 646.521 463.456 646.639 463.75C646.758 464.045 646.815 464.36 646.809 464.677V468.124C647.884 466.186 649.472 464.58 651.398 463.481C653.324 462.383 655.515 461.834 657.732 461.895C665.443 461.895 669.952 467.077 669.952 474.657V492.353C669.974 492.678 669.93 493.004 669.821 493.311C669.712 493.618 669.54 493.9 669.318 494.138C669.095 494.376 668.826 494.566 668.527 494.696C668.228 494.826 667.905 494.893 667.579 494.893C667.253 494.893 666.93 494.826 666.631 494.696C666.332 494.566 666.063 494.376 665.84 494.138C665.618 493.9 665.447 493.618 665.338 493.311C665.229 493.004 665.184 492.678 665.206 492.353V475.829C665.206 469.915 661.994 466.209 656.38 466.209C650.766 466.209 646.809 470.219 646.809 476.2V492.353C646.823 492.666 646.773 492.979 646.662 493.273C646.55 493.566 646.38 493.834 646.162 494.06C645.943 494.285 645.681 494.464 645.391 494.585C645.102 494.706 644.79 494.767 644.476 494.763C644.158 494.768 643.842 494.709 643.548 494.589C643.253 494.469 642.985 494.292 642.76 494.067C642.535 493.843 642.358 493.575 642.238 493.281C642.118 492.986 642.059 492.671 642.064 492.353V464.677Z" fill="#182958"/>
<path d="M710.432 492.352C710.432 492.983 710.181 493.587 709.735 494.033C709.289 494.479 708.684 494.729 708.053 494.729C707.422 494.729 706.817 494.479 706.371 494.033C705.925 493.587 705.675 492.983 705.675 492.352V488.038C703.082 491.857 699.317 495.123 693.455 495.123C685.812 495.123 678.226 489.086 678.226 478.61V478.487C678.226 468.068 685.812 461.895 693.455 461.895C699.385 461.895 703.206 465.105 705.675 468.653V451.544C705.662 451.229 705.714 450.916 705.827 450.623C705.939 450.329 706.111 450.061 706.33 449.836C706.549 449.611 706.812 449.432 707.102 449.311C707.393 449.19 707.705 449.13 708.019 449.133C708.337 449.129 708.653 449.188 708.948 449.307C709.243 449.427 709.51 449.604 709.735 449.829C709.96 450.054 710.138 450.321 710.257 450.616C710.377 450.91 710.436 451.226 710.432 451.544V492.352ZM683.118 478.419V478.543C683.118 486.067 688.36 490.877 694.391 490.877C700.422 490.877 705.934 485.876 705.934 478.543V478.419C705.99 476.854 705.734 475.294 705.183 473.829C704.632 472.363 703.795 471.021 702.722 469.881C701.649 468.74 700.36 467.824 698.93 467.184C697.5 466.544 695.957 466.193 694.391 466.153C688.157 466.153 683.118 470.715 683.118 478.419Z" fill="#182958"/>
<path d="M719.066 478.712V478.588C719.05 474.182 720.786 469.95 723.892 466.822C726.999 463.695 731.221 461.929 735.631 461.912C740.041 461.896 744.277 463.63 747.406 466.735C750.536 469.839 752.304 474.058 752.32 478.464V478.588C752.334 480.783 751.91 482.959 751.074 484.988C750.238 487.018 749.006 488.861 747.451 490.41C745.895 491.96 744.046 493.184 742.012 494.013C739.978 494.841 737.799 495.257 735.603 495.236C733.424 495.262 731.262 494.852 729.244 494.031C727.226 493.21 725.393 491.993 723.852 490.454C722.312 488.914 721.094 487.082 720.273 485.066C719.451 483.05 719.04 480.889 719.066 478.712V478.712ZM747.45 478.712V478.588C747.45 471.751 742.321 466.142 735.603 466.142C728.693 466.142 723.936 471.774 723.936 478.464V478.588C723.936 485.437 728.997 490.979 735.727 490.979C742.637 490.934 747.45 485.392 747.45 478.712V478.712Z" fill="#182958"/>
<path d="M760.899 464.678C760.896 464.049 761.14 463.444 761.578 462.993C762.017 462.543 762.615 462.282 763.244 462.267C763.562 462.263 763.878 462.322 764.172 462.441C764.467 462.561 764.735 462.738 764.96 462.963C765.185 463.188 765.362 463.455 765.482 463.75C765.601 464.044 765.661 464.36 765.656 464.678V468.124C766.727 466.185 768.312 464.578 770.237 463.479C772.162 462.381 774.352 461.833 776.568 461.895C784.278 461.895 788.787 467.077 788.787 474.657V492.353C788.81 492.678 788.765 493.004 788.656 493.311C788.547 493.618 788.376 493.9 788.153 494.138C787.931 494.376 787.661 494.566 787.362 494.696C787.063 494.826 786.741 494.893 786.414 494.893C786.088 494.893 785.766 494.826 785.467 494.696C785.167 494.566 784.898 494.376 784.676 494.138C784.453 493.9 784.282 493.618 784.173 493.311C784.064 493.004 784.019 492.678 784.042 492.353V475.829C784.042 469.915 780.829 466.21 775.215 466.21C769.602 466.21 765.656 470.219 765.656 476.2V492.353C765.668 492.667 765.617 492.98 765.504 493.274C765.391 493.567 765.22 493.835 765.001 494.06C764.782 494.286 764.519 494.464 764.228 494.585C763.938 494.706 763.626 494.767 763.311 494.763C762.993 494.768 762.678 494.709 762.383 494.589C762.088 494.47 761.82 494.292 761.596 494.067C761.371 493.843 761.193 493.575 761.074 493.281C760.954 492.986 760.895 492.671 760.899 492.353V464.678Z" fill="#182958"/>
<path d="M812.854 495.19C804.096 495.19 796.938 488.432 796.938 478.61V478.486C796.938 469.295 803.408 461.895 812.234 461.895C821.67 461.895 827.047 469.599 827.047 478.047C827.047 478.644 826.809 479.217 826.386 479.64C825.964 480.062 825.39 480.3 824.792 480.3H801.751C802.427 487.204 807.297 491.09 813.024 491.09C816.453 491.112 819.753 489.785 822.211 487.396C822.611 487.036 823.139 486.85 823.677 486.878C824.215 486.907 824.719 487.148 825.08 487.548C825.44 487.948 825.626 488.475 825.598 489.013C825.569 489.55 825.328 490.055 824.927 490.415C823.352 491.998 821.467 493.239 819.39 494.061C817.312 494.883 815.087 495.267 812.854 495.19V495.19ZM822.29 476.752C821.794 470.962 818.468 465.904 812.144 465.904C806.598 465.904 802.393 470.534 801.785 476.752H822.29Z" fill="#182958"/>
<path d="M833.708 491.103C833.439 490.903 833.221 490.643 833.07 490.344C832.919 490.045 832.841 489.714 832.84 489.379C832.843 489.108 832.9 488.839 833.007 488.59C833.114 488.34 833.27 488.114 833.464 487.924C833.659 487.735 833.89 487.586 834.142 487.486C834.395 487.385 834.665 487.336 834.937 487.341C835.343 487.339 835.739 487.469 836.064 487.712C839.023 489.844 842.562 491.023 846.21 491.091C850.031 491.091 852.815 489.12 852.815 486.034V485.91C852.815 482.711 849.05 481.472 844.857 480.278C839.852 478.859 834.306 477.136 834.306 471.267V471.143C834.306 465.658 838.871 462.02 845.161 462.02C848.712 462.101 852.191 463.032 855.307 464.734C855.652 464.934 855.939 465.221 856.137 465.567C856.335 465.914 856.437 466.306 856.434 466.705C856.431 466.977 856.374 467.245 856.267 467.495C856.16 467.745 856.005 467.971 855.81 468.16C855.615 468.35 855.384 468.499 855.132 468.599C854.879 468.699 854.609 468.749 854.337 468.744C853.973 468.742 853.615 468.657 853.289 468.496C850.768 466.977 847.9 466.128 844.958 466.029C841.193 466.029 838.792 468.001 838.792 470.659V470.772C838.792 473.802 842.738 474.973 846.999 476.268C851.925 477.744 857.234 479.647 857.234 485.392V485.471C857.234 491.508 852.24 495.023 845.883 495.023C841.526 494.947 837.29 493.583 833.708 491.103V491.103Z" fill="#182958"/>
<path d="M866.163 452.591C866.163 451.845 866.46 451.128 866.988 450.6C867.517 450.072 868.233 449.775 868.981 449.775C869.728 449.775 870.445 450.072 870.974 450.6C871.502 451.128 871.799 451.845 871.799 452.591V453.391C871.799 454.138 871.502 454.854 870.974 455.382C870.445 455.91 869.728 456.207 868.981 456.207C868.233 456.207 867.517 455.91 866.988 455.382C866.46 454.854 866.163 454.138 866.163 453.391V452.591ZM866.591 464.677C866.588 464.049 866.832 463.444 867.27 462.993C867.709 462.543 868.307 462.282 868.936 462.267C869.254 462.262 869.569 462.322 869.864 462.441C870.159 462.561 870.427 462.738 870.652 462.963C870.877 463.188 871.054 463.455 871.174 463.75C871.293 464.044 871.353 464.36 871.348 464.677V492.353C871.36 492.667 871.309 492.98 871.196 493.274C871.083 493.567 870.912 493.835 870.693 494.06C870.474 494.286 870.211 494.464 869.92 494.585C869.63 494.706 869.318 494.766 869.003 494.763C868.685 494.768 868.37 494.708 868.075 494.589C867.78 494.469 867.512 494.292 867.287 494.067C867.062 493.842 866.885 493.575 866.765 493.28C866.646 492.986 866.586 492.67 866.591 492.353V464.677Z" fill="#182958"/>
<path d="M879.982 485.2V485.076C879.982 478.318 885.54 474.781 893.622 474.781C896.941 474.748 900.246 475.208 903.429 476.144V475.018C903.429 469.285 899.912 466.322 893.927 466.322C891.076 466.32 888.258 466.931 885.664 468.113C885.388 468.229 885.094 468.294 884.796 468.305C884.25 468.302 883.727 468.088 883.336 467.708C882.945 467.328 882.717 466.811 882.699 466.266C882.701 465.847 882.825 465.438 883.055 465.088C883.285 464.738 883.612 464.463 883.995 464.295C887.276 462.834 890.832 462.097 894.423 462.132C898.932 462.132 902.381 463.258 904.726 465.646C906.879 467.809 907.995 470.884 907.995 474.962V492.409C908.007 492.713 907.958 493.015 907.85 493.299C907.742 493.583 907.578 493.842 907.367 494.061C907.157 494.28 906.904 494.454 906.624 494.572C906.345 494.691 906.044 494.752 905.74 494.752C905.442 494.761 905.144 494.71 904.867 494.6C904.589 494.49 904.337 494.324 904.125 494.113C903.914 493.902 903.748 493.65 903.638 493.372C903.528 493.095 903.476 492.798 903.486 492.499V489.638C902.138 491.405 900.387 492.824 898.379 493.778C896.371 494.732 894.165 495.193 891.943 495.124C886.025 495.124 879.982 491.733 879.982 485.2ZM903.486 482.734V479.659C900.442 478.755 897.283 478.295 894.107 478.296C888.121 478.296 884.796 480.886 884.796 484.896V485.02C884.796 489.03 888.493 491.373 892.811 491.373C898.672 491.373 903.486 487.791 903.486 482.734Z" fill="#182958"/>
<path d="M819.224 114.079C813.815 114.079 808.628 111.933 804.804 108.111C800.98 104.29 798.831 99.1073 798.831 93.7032C798.831 79.6627 793.249 66.1972 783.314 56.269C773.378 46.3408 759.902 40.7632 745.85 40.7632C731.799 40.7632 718.323 46.3408 708.387 56.269C698.451 66.1972 692.869 79.6627 692.869 93.7032C692.933 96.4186 692.453 99.1194 691.457 101.647C690.461 104.174 688.97 106.477 687.07 108.42C685.171 110.363 682.902 111.907 680.397 112.961C677.892 114.015 675.201 114.558 672.482 114.558C669.764 114.558 667.073 114.015 664.568 112.961C662.063 111.907 659.794 110.363 657.895 108.42C655.995 106.477 654.504 104.174 653.508 101.647C652.512 99.1194 652.032 96.4186 652.096 93.7032C652.367 69.0279 662.367 45.4551 679.925 28.1019C697.483 10.7486 721.182 1.01562 745.878 1.01562C770.574 1.01562 794.274 10.7486 811.832 28.1019C829.39 45.4551 839.39 69.0279 839.661 93.7032C839.661 96.3828 839.132 99.0362 838.104 101.511C837.077 103.986 835.57 106.235 833.672 108.127C831.774 110.02 829.52 111.52 827.041 112.541C824.562 113.563 821.905 114.085 819.224 114.079V114.079Z" fill="#182958"/>
<path d="M599.036 102.15V395.505H892.619V102.15L745.828 248.828L599.036 102.15Z" fill="#009EA9"/>
<path d="M892.619 415.871H599.036C596.359 415.872 593.708 415.347 591.235 414.324C588.762 413.301 586.514 411.801 584.621 409.909C582.729 408.018 581.227 405.772 580.204 403.301C579.18 400.83 578.654 398.181 578.655 395.506V102.151C578.653 98.1212 579.847 94.1815 582.086 90.8302C584.325 87.4789 587.509 84.8667 591.235 83.3243C594.961 81.7819 599.06 81.3786 603.016 82.1654C606.971 82.9523 610.603 84.8938 613.454 87.7444L745.828 220.016L878.201 87.7444C881.052 84.8938 884.684 82.9523 888.64 82.1654C892.595 81.3786 896.694 81.7819 900.42 83.3243C904.146 84.8667 907.33 87.4789 909.569 90.8302C911.808 94.1815 913.002 98.1212 913 102.151V395.506C913 400.907 910.853 406.087 907.03 409.906C903.208 413.725 898.024 415.871 892.619 415.871V415.871ZM619.417 375.085H872.227V151.329L760.245 263.235C758.352 265.128 756.105 266.629 753.631 267.654C751.157 268.678 748.506 269.206 745.828 269.206C743.15 269.206 740.498 268.678 738.024 267.654C735.55 266.629 733.303 265.128 731.41 263.235L619.417 151.329V375.085Z" fill="#182958"/>
<path d="M-4.54316e-05 331.234V241.71C-0.0180328 238.954 0.512097 236.222 1.55956 233.673C2.60702 231.123 4.15093 228.807 6.10164 226.859C8.05235 224.911 10.371 223.369 12.9229 222.324C15.4748 221.279 18.209 220.751 20.967 220.77C23.7277 220.749 26.4651 221.277 29.0198 222.323C31.5745 223.369 33.8954 224.912 35.8477 226.863C37.7999 228.814 39.3443 231.133 40.3911 233.686C41.438 236.238 41.9662 238.973 41.9452 241.732V330.176C41.9452 361.196 57.4676 377.247 83.0676 377.247C108.668 377.247 124.19 361.737 124.19 331.527V241.71C124.125 238.917 124.62 236.139 125.645 233.54C126.669 230.941 128.204 228.572 130.158 226.574C132.112 224.576 134.446 222.988 137.022 221.904C139.599 220.82 142.367 220.262 145.163 220.262C147.958 220.262 150.726 220.82 153.303 221.904C155.88 222.988 158.214 224.576 160.167 226.574C162.121 228.572 163.656 230.941 164.681 233.54C165.706 236.139 166.2 238.917 166.135 241.71V329.883C166.135 387.576 133.727 415.871 82.5152 415.871C31.3039 415.871 -4.54316e-05 387.295 -4.54316e-05 331.234Z" fill="#182958"/>
<path d="M398.576 242.972C398.576 237.416 400.785 232.087 404.717 228.158C408.649 224.229 413.982 222.021 419.543 222.021C425.104 222.021 430.437 224.229 434.369 228.158C438.301 232.087 440.51 237.416 440.51 242.972L440.431 306.928L517.874 230.334C523.059 225.175 528.233 222.19 535.583 222.202C547.295 222.202 554.915 231.213 554.904 241.542C554.904 248.075 551.894 252.963 547.25 257.311L493.536 307.322L552.007 380.875C555.265 384.953 557.711 389.312 557.7 395.574C557.7 407.277 548.682 415.973 536.44 415.962C528.267 415.962 523.363 411.862 518.742 405.824L464.363 334.536L440.375 356.816L440.318 394.921C440.315 397.672 439.769 400.396 438.711 402.936C437.654 405.477 436.107 407.784 434.157 409.727C432.208 411.67 429.894 413.21 427.349 414.26C424.804 415.309 422.077 415.847 419.323 415.844C416.57 415.84 413.844 415.294 411.302 414.238C408.759 413.182 406.45 411.635 404.505 409.687C402.561 407.739 401.02 405.428 399.97 402.884C398.919 400.341 398.381 397.616 398.384 394.865L398.576 242.972Z" fill="#182958"/>
<path d="M186.989 243.614C186.967 240.856 187.494 238.122 188.54 235.57C189.585 233.018 191.129 230.699 193.08 228.749C195.032 226.799 197.352 225.257 199.906 224.212C202.46 223.167 205.197 222.64 207.956 222.663H212.59C216.451 222.601 220.259 223.579 223.613 225.493C226.966 227.408 229.743 230.188 231.651 233.544L282.311 315.995L333.229 233.273C337.591 226.2 343.577 222.663 352.02 222.663H356.653C359.413 222.64 362.15 223.167 364.704 224.212C367.258 225.257 369.578 226.799 371.529 228.749C373.481 230.699 375.024 233.018 376.07 235.57C377.116 238.122 377.643 240.856 377.62 243.614V394.92C377.62 400.447 375.423 405.747 371.512 409.655C367.601 413.563 362.297 415.758 356.766 415.758C351.235 415.758 345.931 413.563 342.02 409.655C338.109 405.747 335.912 400.447 335.912 394.92V299.944L299.14 356.545C294.789 363.078 289.345 367.155 281.713 367.155C274.082 367.155 268.637 363.078 264.286 356.545L228.112 300.744V395.45C228.109 398.153 227.57 400.828 226.526 403.321C225.481 405.815 223.953 408.076 222.028 409.975C220.103 411.875 217.821 413.373 215.313 414.385C212.804 415.397 210.12 415.902 207.415 415.871C204.726 415.897 202.059 415.386 199.57 414.369C197.081 413.353 194.82 411.85 192.919 409.95C191.018 408.049 189.515 405.789 188.499 403.301C187.483 400.813 186.974 398.148 187.001 395.461L186.989 243.614Z" fill="#182958"/>
<path d="M254.49 112.312C254.478 110.922 254.743 109.544 255.269 108.257C255.795 106.971 256.573 105.802 257.556 104.818C258.539 103.835 259.708 103.057 260.995 102.529C262.282 102.002 263.661 101.736 265.052 101.746H293.729C316.635 101.746 330.489 115.263 330.489 134.93V135.166C330.489 157.378 313.208 168.89 291.667 168.89H275.614V187.948C275.614 190.748 274.502 193.432 272.521 195.411C270.54 197.391 267.853 198.503 265.052 198.503C262.251 198.503 259.564 197.391 257.583 195.411C255.602 193.432 254.49 190.748 254.49 187.948V112.312ZM292.354 150.147C302.917 150.147 309.094 143.839 309.094 135.617V135.335C309.094 125.873 302.511 120.805 291.937 120.805H275.614V150.147H292.354Z" fill="#009EA9"/>
<path d="M345.223 176.053V175.783C345.223 159.743 357.431 152.331 374.858 152.331C380.982 152.28 387.067 153.301 392.838 155.35V154.122C392.838 145.483 387.484 140.685 377.056 140.685C372.178 140.633 367.32 141.325 362.65 142.735C361.683 143.095 360.661 143.282 359.629 143.287C358.5 143.306 357.378 143.1 356.329 142.682C355.28 142.263 354.325 141.639 353.52 140.847C352.715 140.056 352.076 139.111 351.64 138.07C351.205 137.029 350.981 135.911 350.983 134.782C350.987 133.021 351.529 131.303 352.536 129.858C353.543 128.413 354.968 127.309 356.619 126.695C363.214 124.228 370.349 122.865 380.089 122.865C391.474 122.865 399.703 125.873 404.888 131.088C410.367 136.573 412.836 144.661 412.836 154.528V187.981C412.837 189.307 412.575 190.619 412.064 191.842C411.553 193.066 410.804 194.175 409.859 195.106C408.915 196.037 407.795 196.77 406.564 197.265C405.333 197.759 404.017 198.003 402.69 197.984C396.648 197.984 392.669 193.737 392.669 189.344V189.232C387.596 194.864 380.596 198.558 370.451 198.558C356.608 198.536 345.223 190.583 345.223 176.053ZM393.109 171.21V167.504C388.915 165.66 384.377 164.727 379.796 164.767C370.879 164.767 365.389 168.326 365.389 174.904V175.174C365.389 180.806 370.056 184.084 376.786 184.084C386.525 184.14 393.109 178.79 393.109 171.21Z" fill="#009EA9"/>
<path d="M427.592 113.134C427.58 111.744 427.845 110.366 428.371 109.079C428.897 107.793 429.675 106.624 430.658 105.64C431.641 104.657 432.81 103.879 434.097 103.352C435.384 102.824 436.763 102.558 438.154 102.569H465.05C495.227 102.569 516.081 123.272 516.081 150.282V150.553C516.081 177.586 495.227 198.536 465.05 198.536H438.154C436.764 198.547 435.386 198.281 434.1 197.754C432.813 197.228 431.645 196.451 430.662 195.469C429.679 194.486 428.901 193.319 428.374 192.034C427.847 190.748 427.581 189.371 427.592 187.982V113.134ZM465.05 179.478C482.331 179.478 493.998 167.831 493.998 150.823V150.553C493.998 133.555 482.331 121.627 465.05 121.627H448.728V179.478H465.05Z" fill="#009EA9"/>
<path d="M530.814 106.69C530.814 100.653 535.887 96.9473 542.482 96.9473C549.076 96.9473 554.137 100.653 554.137 106.69V107.006C554.137 113.032 549.065 116.873 542.482 116.873C535.898 116.873 530.814 113.032 530.814 107.006V106.69ZM532.054 133.825C532.054 131.062 533.153 128.412 535.108 126.458C537.064 124.504 539.716 123.406 542.482 123.406C545.247 123.406 547.899 124.504 549.855 126.458C551.81 128.412 552.909 131.062 552.909 133.825V188.105C552.909 190.869 551.81 193.519 549.855 195.473C547.899 197.427 545.247 198.524 542.482 198.524C539.716 198.524 537.064 197.427 535.108 195.473C533.153 193.519 532.054 190.869 532.054 188.105V133.825Z" fill="#009EA9"/>
</g>
<defs>
<clipPath id="clip0_1062_127079">
<rect width="913" height="504.439" fill="white"/>
</clipPath>
</defs>
</svg>
